<?xml version="1.0" encoding="utf-8"?>
<!-- Uploaded to: SVG Repo, www.svgrepo.com, Generator: SVG Repo Mixer Tools -->
<svg width="800px" height="800px" viewBox="0 0 1024 1024" class="icon"  version="1.1" xmlns="http://www.w3.org/2000/svg"><path d="M911.720735 295.765658l-42.761546-42.764618c-20.537092-20.537092-53.844081-20.777705-74.322812-0.329691l-57.726655 57.729726c-9.368551-28.12613-35.62609-48.60486-66.916025-48.60486h-186.224263c-18.070552 0-56.282976-58.602077-118.802438-58.602077H166.156111c-39.030509 0-70.829315 31.740445-70.829316 70.829315v474.085527c0 38.244165 30.534308 69.324204 68.418066 70.647063 0.484298 0 0.903067 0.240613 1.44675 0.240613h630.108243c39.08887 0 70.887677-31.798807 70.887677-70.887676V415.921673l45.894636-45.894636c20.416273-20.388628 20.237093-53.664902-0.361432-74.261379z" fill="#27323A" /><path d="M819.330443 398.724495L618.68066 599.434687l-51.074472-2.28736-2.288384-51.072423 200.64876-200.683572z" fill="#79CCBF" /><path d="M478.468779 686.616475c-3.854928-3.854928-10.118035-4.397587-17.163389-2.892476 16.442574-43.242773 41.916841-99.467388 43.00216-103.259859l1.384293-1.44675c8.91497 1.023885 18.729934 2.109204 23.608747 2.59043l0.36348 0.422865 1.322859 51.765594 51.73795 1.203065 0.119794 0.120819a2329.963684 2329.963684 0 0 0 2.76961 23.790999l-1.445726 1.387365c-3.552882 1.082247-59.625962 26.98245-102.686483 43.60318 1.442654-7.108836 0.841634-13.430304-3.013295-17.285232z" fill="#FFFFFF" /><path d="M181.03214 464.674996v284.096438c0 12.467852-4.940247 22.94527-20.118322 23.066088-13.367847-0.119795-19.331979-10.237829-19.331979-23.728542V274.022429c0-13.55317 11.021102-24.573248 24.574272-24.573247H364.966996c24.151407 0 44.812389 16.864415 63.061097 31.709728 16.89206 13.8245 32.974227 26.892348 55.740317 26.892348h186.223239c13.55317 0 24.574272 11.021102 24.574272 24.574272v10.901307H530.687955c-37.041099 0-68.723183 50.292223-82.512871 50.292223H251.919817c-39.027437-0.001024-70.887677 31.767066-70.887677 70.855936z" fill="#79CCBF" /><path d="M819.931464 748.10898c0 13.611532-11.079463 24.632633-24.632633 24.632633H223.614507c1.32286-7.10474 3.672677-13.370918 3.672677-21.619339V464.674996c0-13.550098 11.082535-24.601917 24.632633-24.601916h196.255267c23.368135 0 38.96498-14.456237 54.143056-28.490633 7.22863-6.684947 22.224455-20.596477 28.851041-21.80159h126.388405L486.539044 560.830115l0.119794 0.298975-2.950837 2.950837a4.265506 4.265506 0 0 0-1.32286 2.170637l-64.535492 171.798742c-0.360408 0.903067-0.119795 1.926952 0 2.950838 0.240613 1.748796 0.721839 3.373702 1.986337 4.699634 1.085318 0.962452 2.469611 1.686339 3.974723 1.926952 1.206137 0.422865 2.532068 0.601021 3.73411 0.119794l170.959157-65.469275c0.783272-0.17918 1.505111-0.721839 2.167565-1.203065l2.889404-2.831043h0.422865l215.947654-216.039804v285.905643z" fill="#F4CE73" /><path d="M850.95007 367.134561l-53.362856-53.301422 29.091654-29.119299 53.301422 53.301422z" fill="#FFFFFF" /></svg>